<mxfile host="app.diagrams.net" modified="2020-10-13T11:49:28.048Z" agent="5.0 (X11; Linux x86_64) AppleWebKit/537.36 (KHTML, like Gecko) Chrome/84.0.4147.135 Safari/537.36" etag="vIJAyRNuJBa1z0YsuJww" version="13.7.9" type="github">
  <diagram id="L8QtokBy4twJuRu05DtB" name="Page-1">
    <mxGraphModel dx="769" dy="674" grid="1" gridSize="10" guides="1" tooltips="1" connect="1" arrows="1" fold="1" page="1" pageScale="1" pageWidth="1169" pageHeight="1654" math="0" shadow="0">
      <root>
        <mxCell id="0" />
        <mxCell id="1" parent="0" />
        <mxCell id="8nin3ADlOJw-6rtWGwkk-2" value="&lt;font&gt;&lt;span style=&quot;font-size: 20px&quot;&gt;&lt;b&gt;12&lt;/b&gt;&lt;/span&gt;&lt;br&gt;&lt;font style=&quot;font-size: 14px&quot;&gt;h: 0&lt;/font&gt;&lt;br&gt;&lt;/font&gt;" style="ellipse;whiteSpace=wrap;html=1;" parent="1" vertex="1">
          <mxGeometry x="460" y="410" width="80" height="80" as="geometry" />
        </mxCell>
        <mxCell id="8nin3ADlOJw-6rtWGwkk-19" style="edgeStyle=none;rounded=0;orthogonalLoop=1;jettySize=auto;html=1;exitX=0;exitY=1;exitDx=0;exitDy=0;" parent="1" source="8nin3ADlOJw-6rtWGwkk-2" target="8nin3ADlOJw-6rtWGwkk-2" edge="1">
          <mxGeometry relative="1" as="geometry" />
        </mxCell>
        <mxCell id="K9v8ES89yLi1iwBclzwb-8" style="edgeStyle=none;rounded=0;orthogonalLoop=1;jettySize=auto;html=1;exitX=1;exitY=1;exitDx=0;exitDy=0;" edge="1" parent="1" source="K9v8ES89yLi1iwBclzwb-1" target="8nin3ADlOJw-6rtWGwkk-2">
          <mxGeometry relative="1" as="geometry" />
        </mxCell>
        <mxCell id="K9v8ES89yLi1iwBclzwb-14" style="edgeStyle=none;rounded=0;orthogonalLoop=1;jettySize=auto;html=1;exitX=0;exitY=1;exitDx=0;exitDy=0;entryX=1;entryY=0;entryDx=0;entryDy=0;" edge="1" parent="1" source="K9v8ES89yLi1iwBclzwb-1" target="K9v8ES89yLi1iwBclzwb-2">
          <mxGeometry relative="1" as="geometry" />
        </mxCell>
        <mxCell id="K9v8ES89yLi1iwBclzwb-1" value="&lt;font&gt;&lt;span style=&quot;font-size: 20px&quot;&gt;&lt;b&gt;10&lt;/b&gt;&lt;/span&gt;&lt;br&gt;&lt;font style=&quot;font-size: 14px&quot;&gt;h: 1&lt;/font&gt;&lt;br&gt;&lt;/font&gt;" style="ellipse;whiteSpace=wrap;html=1;" vertex="1" parent="1">
          <mxGeometry x="360" y="310" width="80" height="80" as="geometry" />
        </mxCell>
        <mxCell id="K9v8ES89yLi1iwBclzwb-2" value="&lt;font&gt;&lt;span style=&quot;font-size: 20px&quot;&gt;&lt;b&gt;8&lt;/b&gt;&lt;/span&gt;&lt;br&gt;&lt;font style=&quot;font-size: 14px&quot;&gt;h: 0&lt;/font&gt;&lt;br&gt;&lt;/font&gt;" style="ellipse;whiteSpace=wrap;html=1;" vertex="1" parent="1">
          <mxGeometry x="270" y="410" width="80" height="80" as="geometry" />
        </mxCell>
        <mxCell id="K9v8ES89yLi1iwBclzwb-10" style="edgeStyle=none;rounded=0;orthogonalLoop=1;jettySize=auto;html=1;exitX=0;exitY=1;exitDx=0;exitDy=0;" edge="1" parent="1" source="K9v8ES89yLi1iwBclzwb-3" target="K9v8ES89yLi1iwBclzwb-4">
          <mxGeometry relative="1" as="geometry" />
        </mxCell>
        <mxCell id="K9v8ES89yLi1iwBclzwb-13" style="edgeStyle=none;rounded=0;orthogonalLoop=1;jettySize=auto;html=1;exitX=1;exitY=1;exitDx=0;exitDy=0;" edge="1" parent="1" source="K9v8ES89yLi1iwBclzwb-3" target="K9v8ES89yLi1iwBclzwb-1">
          <mxGeometry relative="1" as="geometry" />
        </mxCell>
        <mxCell id="K9v8ES89yLi1iwBclzwb-3" value="&lt;font&gt;&lt;span style=&quot;font-size: 20px&quot;&gt;&lt;b&gt;6&lt;/b&gt;&lt;/span&gt;&lt;br&gt;&lt;font style=&quot;font-size: 14px&quot;&gt;h: 2&lt;/font&gt;&lt;br&gt;&lt;/font&gt;" style="ellipse;whiteSpace=wrap;html=1;" vertex="1" parent="1">
          <mxGeometry x="240" y="210" width="80" height="80" as="geometry" />
        </mxCell>
        <mxCell id="K9v8ES89yLi1iwBclzwb-12" style="edgeStyle=none;rounded=0;orthogonalLoop=1;jettySize=auto;html=1;exitX=0;exitY=1;exitDx=0;exitDy=0;" edge="1" parent="1" source="K9v8ES89yLi1iwBclzwb-4" target="K9v8ES89yLi1iwBclzwb-5">
          <mxGeometry relative="1" as="geometry" />
        </mxCell>
        <mxCell id="K9v8ES89yLi1iwBclzwb-4" value="&lt;font&gt;&lt;font style=&quot;font-size: 20px&quot;&gt;&lt;b&gt;4&lt;br&gt;&lt;/b&gt;&lt;/font&gt;&lt;font style=&quot;font-size: 14px&quot;&gt;h: 1&lt;/font&gt;&lt;br&gt;&lt;/font&gt;" style="ellipse;whiteSpace=wrap;html=1;" vertex="1" parent="1">
          <mxGeometry x="130" y="310" width="80" height="80" as="geometry" />
        </mxCell>
        <mxCell id="K9v8ES89yLi1iwBclzwb-5" value="&lt;font&gt;&lt;span style=&quot;font-size: 20px&quot;&gt;&lt;b&gt;2&lt;/b&gt;&lt;/span&gt;&lt;br&gt;&lt;font style=&quot;font-size: 14px&quot;&gt;h: 0&lt;/font&gt;&lt;br&gt;&lt;/font&gt;" style="ellipse;whiteSpace=wrap;html=1;" vertex="1" parent="1">
          <mxGeometry x="40" y="410" width="80" height="80" as="geometry" />
        </mxCell>
      </root>
    </mxGraphModel>
  </diagram>
</mxfile>
